<svg id="Capa_1" data-name="Capa 1" xmlns="http://www.w3.org/2000/svg" viewBox="0 0 220.32 126"><defs><style>.cls-1{fill:#1d1d1b;}</style></defs><title>logoprincipal</title><path class="cls-1" d="M168.49,420.89v-126h11l57.6,98.28h-5.76l57.06-98.28h11v126H286.57v-106h3.06l-52.56,90h-6.3l-52.92-90h3.42v106Z" transform="translate(-168.49 -294.89)"/><path class="cls-1" d="M288.19,420.89v-126h47.16q16,0,27.54,5.13a39.65,39.65,0,0,1,17.73,14.76q6.21,9.63,6.21,23.31,0,13.32-6.21,23a39.65,39.65,0,0,1-17.73,14.76q-11.52,5.13-27.54,5.13H295.57l5.94-6.12v46.08Zm13.32-45-5.94-6.3H335q18.9,0,28.71-8.28t9.81-23.22q0-15.12-9.81-23.4T335,306.41H295.57l5.94-6.3Zm72.72,45-32.4-45.72h14.4l32.58,45.72Z" transform="translate(-168.49 -294.89)"/></svg>